<?xml version="1.0" standalone="no"?>
<!DOCTYPE svg PUBLIC "-//W3C//DTD SVG 20010904//EN"
 "http://www.w3.org/TR/2001/REC-SVG-20010904/DTD/svg10.dtd">
<svg version="1.0" xmlns="http://www.w3.org/2000/svg"
 width="100.000000pt" height="100.000000pt" viewBox="0 0 100.000000 100.000000"
 preserveAspectRatio="xMidYMid meet">
<metadata>
Created by potrace 1.14, written by Peter Selinger 2001-2017
</metadata>
<g transform="translate(0.000000,100.000000) scale(0.100000,-0.100000)"
fill="#000000" stroke="none">
<path d="M383 986 c-219 -53 -383 -261 -383 -486 0 -270 230 -500 500 -500
270 0 500 230 500 500 0 274 -233 503 -508 499 -31 0 -80 -6 -109 -13z m87
-147 l0 -91 -65 4 c-35 2 -67 7 -71 10 -19 20 92 168 126 168 6 0 10 -37 10
-91z m115 59 c37 -32 91 -125 80 -136 -3 -3 -35 -8 -70 -10 l-65 -4 0 91 c0
52 4 91 10 91 5 0 25 -14 45 -32z m-288 -55 c-16 -32 -31 -59 -32 -61 -6 -8
-65 22 -62 32 4 12 105 86 118 86 4 0 -7 -26 -24 -57z m443 20 c29 -21 55 -43
57 -49 3 -10 -56 -40 -62 -32 -17 25 -61 118 -56 118 4 0 32 -17 61 -37z
m-538 -126 c44 -18 46 -20 38 -47 -5 -16 -11 -58 -15 -94 l-7 -66 -78 0 -77 0
9 53 c9 53 65 180 76 175 4 -2 28 -11 54 -21z m686 -39 c17 -35 35 -87 40
-115 l9 -53 -77 0 -78 0 -7 65 c-3 35 -10 77 -14 92 -7 26 -5 30 38 50 25 12
49 22 52 22 3 1 20 -27 37 -61z m-470 -13 l52 -7 0 -74 0 -74 -95 0 c-69 0
-95 3 -95 13 0 23 21 140 26 149 3 5 18 7 32 4 15 -3 51 -8 80 -11z m282 -15
c4 -14 10 -52 14 -83 l7 -57 -95 0 -96 0 0 74 0 75 58 6 c31 4 62 8 67 10 22
8 39 -1 45 -25z m-475 -266 c4 -36 10 -78 15 -94 8 -27 6 -29 -38 -47 -26 -10
-50 -19 -54 -21 -11 -5 -67 122 -76 176 l-9 52 77 0 78 0 7 -66z m245 -8 l0
-74 -47 -6 c-27 -4 -64 -9 -84 -12 l-36 -5 -12 76 c-6 42 -11 80 -11 85 0 6
41 10 95 10 l95 0 0 -74z m244 17 c-4 -31 -10 -69 -14 -83 -8 -27 -11 -28
-112 -15 l-58 6 0 75 0 74 96 0 95 0 -7 -57z m214 5 c-10 -53 -66 -181 -77
-176 -3 2 -27 11 -53 21 -44 18 -46 20 -38 47 5 16 11 58 15 94 l7 66 78 0 77
0 -9 -52z m-458 -258 c0 -51 -4 -90 -10 -90 -20 0 -82 65 -106 111 -13 27 -24
50 -24 53 0 8 33 14 88 15 l52 1 0 -90z m195 78 c19 -19 -92 -168 -125 -168
-6 0 -10 39 -10 91 l0 91 65 -4 c35 -2 67 -7 70 -10z m-369 -78 c17 -33 28
-60 24 -60 -12 0 -113 75 -117 87 -3 9 32 29 57 32 3 1 19 -26 36 -59z m473
49 c18 -6 30 -16 28 -23 -4 -11 -105 -86 -117 -86 -6 0 51 119 56 120 1 0 15
-5 33 -11z"/>
</g>
</svg>
